<svg width="12" height="11" viewBox="0 0 12 11" fill="none" xmlns="http://www.w3.org/2000/svg">
<path d="M6.71392 0.342658L7.99631 2.95107C8.08548 3.13249 8.25791 3.2582 8.45737 3.28724L11.325 3.70555C11.8274 3.77888 12.0278 4.39837 11.6644 4.75382L9.5894 6.78418C9.4452 6.92536 9.37926 7.12892 9.41341 7.32819L9.90318 10.1952C9.98903 10.6973 9.46393 11.0801 9.01473 10.8432L6.44994 9.48973C6.27159 9.39569 6.05837 9.39569 5.88002 9.48973L3.31523 10.8432C2.86603 11.0803 2.34093 10.6973 2.42679 10.1952L2.91655 7.32819C2.9507 7.12892 2.88477 6.92536 2.74056 6.78418L0.665542 4.75382C0.302194 4.39813 0.502605 3.77864 1.00494 3.70555L3.87259 3.28724C4.07205 3.2582 4.24448 3.13249 4.33365 2.95107L5.61604 0.342658C5.84041 -0.114219 6.48931 -0.114219 6.71392 0.342658Z" fill="#D9D9E0"/>
</svg>
